<?xml version="1.0" encoding="utf-8"?>
<!-- Generator: Adobe Illustrator 15.0.0, SVG Export Plug-In . SVG Version: 6.00 Build 0)  -->
<!DOCTYPE svg PUBLIC "-//W3C//DTD SVG 1.1//EN" "http://www.w3.org/Graphics/SVG/1.1/DTD/svg11.dtd">
<svg version="1.1" id="Слой_1" xmlns="http://www.w3.org/2000/svg" xmlns:xlink="http://www.w3.org/1999/xlink" x="0px" y="0px"
	 width="32px" height="32px" viewBox="0 -4.906 32.563 32.406" enable-background="new 0 -4.906 32.563 32.406"
	 xml:space="preserve">
<path fill="#FF7777" d="M28.777,2.127c0,2.222-1.166,3.62-3.487,4.196l4.231,4.89h-3.463l-3.864-4.523h-3.579v4.523h-2.73V-2.241
	h6.004c2.467,0,4.232,0.348,5.294,1.042C28.24-0.504,28.777,0.601,28.777,2.127z M25.144,4.039c0.557-0.395,0.83-1.035,0.83-1.919
	c0-0.888-0.283-1.482-0.853-1.81c-0.564-0.33-1.584-0.494-3.043-0.494h-3.463v4.816h3.39C23.547,4.632,24.597,4.431,25.144,4.039z"
	/>
<path fill="#FFFFFF" d="M4.589,12.263c1.061-0.694,2.824-1.041,5.291-1.041h6.004v13.463h-2.729v-4.522H9.586l-3.863,4.522H2.259
	l4.23-4.89c-2.32-0.576-3.484-1.973-3.484-4.196C2.994,14.064,3.529,12.95,4.589,12.263z M9.765,18.096h3.391v-4.816H9.691
	c-1.459,0-2.477,0.164-3.044,0.492c-0.566,0.33-0.85,0.935-0.85,1.811c0,0.879,0.272,1.519,0.829,1.919
	C7.183,17.903,8.222,18.096,9.765,18.096z"/>
<rect y="-4.906" fill="none" stroke="#FFFFFF" stroke-miterlimit="10" width="32.563" height="32.562"/>
</svg>
